<svg xmlns="http://www.w3.org/2000/svg" viewBox="0 0 800 400">
  <!-- Estilo e cores -->
  <defs>
    <style>
      .box { stroke: #333; stroke-width: 2; rx: 10; ry: 10; }
      .label { font-family: Arial; font-size: 14px; text-anchor: middle; }
      .step-number { font-family: Arial; font-size: 18px; font-weight: bold; fill: white; }
      .step-circle { fill: #3498DB; stroke: #2980B9; stroke-width: 2; }
      .arrow { stroke: #555; stroke-width: 2; marker-end: url(#arrowhead); }
      .flow-text { font-family: Arial; font-size: 12px; fill: #555; }
      .setup-box { fill: #F9E79F; }
    </style>
    <marker id="arrowhead" markerWidth="10" markerHeight="7" refX="9" refY="3.5" orient="auto">
      <polygon points="0 0, 10 3.5, 0 7" fill="#555" />
    </marker>
  </defs>
  
  <!-- Título -->
  <text x="400" y="30" font-family="Arial" font-size="20" font-weight="bold" text-anchor="middle">LangChain - Fluxo Completo</text>
  
  <!-- Inicialização -->
  <rect x="250" y="60" width="300" height="80" class="box setup-box" />
  <text x="400" y="85" class="label" font-weight="bold">Inicialização</text>
  <text x="400" y="105" class="label">base_llm = OpenAI Model</text>
  <text x="400" y="125" class="label">enricher_llm = Azure LLM Service</text>
  
  <!-- Criação do SequentialChain -->
  <rect x="90" y="170" width="620" height="60" class="box setup-box" />
  <text x="400" y="205" class="label" font-weight="bold">_create_pipeline(base_llm, enricher_llm) → SequentialChain</text>
  
  <!-- Componentes em sequência horizontal -->
  <rect x="90" y="260" width="160" height="80" class="box" fill="#AED6F1" />
  <text x="170" y="305" class="label">base_message_chain</text>
  
  <rect x="320" y="260" width="160" height="80" class="box" fill="#D7BDE2" />
  <text x="400" y="305" class="label">enrich_message_chain</text>
  
  <rect x="550" y="260" width="160" height="80" class="box" fill="#A9DFBF" />
  <text x="630" y="305" class="label">pdf_chain</text>
  
  <!-- Setas de fluxo -->
  <line x1="400" y1="140" x2="400" y2="170" class="arrow" />
  <line x1="400" y1="230" x2="400" y2="260" class="arrow" />
  <line x1="250" y1="300" x2="320" y2="300" class="arrow" />
  <line x1="480" y1="300" x2="550" y2="300" class="arrow" />
  
  <!-- Círculos numerados para sequência -->
  <text x="350" y="95" class="step-number">1</text>
  
  <text x="350" y="205" class="step-number">2</text>
  
  <text x="130" y="295" class="step-number">3</text>
  
  
  <text x="360" y="295" class="step-number">4</text>
  
  <text x="590" y="295" class="step-number">5</text>
  
  <!-- Labels informativos -->
  <text x="270" y="280" class="flow-text">base_message</text>
  <text x="500" y="280" class="flow-text">final_message</text>
  <text x="690" y="280" class="flow-text">pdf_file</text>
  
  <!-- Caixa do SequentialChain -->
  <rect x="70" y="240" width="660" height="120" stroke="#FF7F50" stroke-width="2" stroke-dasharray="5,5" fill="none" rx="15" ry="15" />
  <text x="400" y="375" font-family="Arial" font-size="16" font-weight="bold" text-anchor="middle">pipeline.run(inputs) → pdf_file</text>
</svg>